<?xml version="1.0" standalone="no"?>
<!DOCTYPE svg PUBLIC "-//W3C//DTD SVG 20010904//EN"
 "http://www.w3.org/TR/2001/REC-SVG-20010904/DTD/svg10.dtd">
<svg version="1.0" xmlns="http://www.w3.org/2000/svg"
 width="117.000000pt" height="117.000000pt" viewBox="0 0 117.000000 117.000000"
 preserveAspectRatio="xMidYMid meet">
<metadata>
Created by potrace 1.14, written by Peter Selinger 2001-2017
</metadata>
<g transform="translate(0.000000,117.000000) scale(0.100000,-0.100000)"
fill="#000000" stroke="none">
<path d="M6 948 c15 -25 77 -123 99 -158 12 -19 91 -147 175 -285 84 -137 158
-256 165 -263 10 -11 23 6 70 83 32 53 62 98 66 100 4 3 26 -27 49 -67 24 -39
53 -86 64 -103 l22 -32 17 23 c9 13 17 25 17 28 0 3 22 40 49 83 27 43 110
179 186 303 76 124 146 237 156 252 37 51 30 51 -153 -16 -82 -30 -148 -51
-148 -48 0 2 14 27 30 54 17 26 30 50 30 52 0 3 -57 -16 -127 -41 -205 -73
-176 -73 -350 -10 -84 30 -153 52 -153 49 0 -3 13 -27 30 -53 16 -27 26 -49
22 -49 -5 0 -79 25 -166 55 -86 30 -154 49 -150 43z m418 -253 l77 -126 -21
-34 c-12 -19 -25 -35 -28 -35 -4 0 -37 51 -75 113 -37 62 -76 126 -87 143
l-20 31 32 16 c18 9 36 17 39 17 3 0 41 -56 83 -125z m437 109 c22 -11 29 -20
24 -32 -3 -9 -43 -76 -88 -149 l-81 -132 -23 34 c-13 19 -23 38 -23 42 0 7 78
138 136 231 17 26 17 26 55 6z m-247 -7 c17 -12 17 -15 -4 -50 -24 -41 -33
-40 -56 5 -15 30 -15 32 2 45 22 16 35 16 58 0z"/>
</g>
</svg>
