<svg width="281" height="74" viewBox="0 0 281 74" fill="none" xmlns="http://www.w3.org/2000/svg">
<path fill-rule="evenodd" clip-rule="evenodd" d="M90.7657 0L54.9251 12.6264L63.6429 17.3795L45.4512 46.8628L27.2943 17.3891L36.0318 12.6229L0.163879 0.0446854L45.4608 73.5226L90.7657 0Z" fill="white" fill-opacity="0.949"/>
<path fill-rule="evenodd" clip-rule="evenodd" d="M116.993 3.05176e-05L81.1521 12.7084L89.8699 17.4929L71.6783 47.1671L53.5215 17.5025L62.2589 12.7049L26.3907 0.0450058L71.6879 74L116.993 3.05176e-05Z" fill="#00D3D4"/>
<path fill-rule="evenodd" clip-rule="evenodd" d="M127.073 32.7308H132.196L133.83 29.6676C134.403 28.6058 134.537 28.2397 134.684 27.8859C134.83 28.2397 134.964 28.5325 135.33 29.1673L137.098 32.7308H142.221L137.599 25.0425L142.441 17H137.391L135.683 20.3439C135.037 21.552 134.903 21.9058 134.684 22.5529C134.537 22.1986 134.476 22.1253 133.976 21.1249L131.842 17H127L131.769 24.9692L127.073 32.7308ZM157.661 29.1673V20.8439H159.515C161.869 20.8439 163.003 21.9058 163.003 24.8226C163.003 27.9592 161.369 29.2407 159.588 29.1673H157.661ZM153.539 32.7308H159.515C161.93 32.8041 163.93 31.9496 165.064 30.5951C166.064 29.5211 167.126 26.9583 167.126 24.3343C167.126 22.1986 166.491 20.49 165.772 19.4163C164.857 18.0615 163.149 17 160.296 17H153.539V32.7308ZM173.102 23.9072V20.6977H174.675C175.882 20.6977 176.163 20.8439 176.382 20.9782C176.809 21.1982 177.016 21.6253 177.016 22.1253C177.016 22.9068 176.663 23.4072 176.09 23.6877C175.956 23.761 175.736 23.9072 174.309 23.9072H173.102ZM168.98 32.7308H173.102V26.7511L176.809 32.7308H181.931L177.297 25.9696C178.017 25.8968 178.944 25.6158 179.651 25.0425C180.578 24.261 181.358 22.7601 181.358 21.1982C181.358 19.4163 180.431 18.1348 179.224 17.5C178.651 17.2072 178.017 17 176.309 17H168.98V32.7308ZM183.773 32.7308H194.518V29.1673L187.908 29.2407V26.8239H194.518V22.9801H187.908V20.8439H194.518V17H183.773V32.7308ZM201.848 25.6769L203.409 19.9167L204.982 25.6769H201.848ZM195.799 32.7308H199.86L200.787 29.46H206.043L206.97 32.7308H211.031L206.69 17H200.14L195.799 32.7308ZM212.312 32.7308H216.227L216.288 27.8126C216.288 25.6769 216.154 23.4072 215.861 21.1982C216.288 22.6868 216.654 24.1882 217.081 25.6769L218.996 32.7308H222.557L224.472 25.8968C224.618 25.2497 225.045 23.5411 225.618 21.4054C225.399 23.6877 225.326 26.104 225.326 27.6049V32.7308H229.24V17H223.057L221.776 22.7601C221.35 24.542 220.984 26.8239 220.776 29.033C220.703 27.1782 220.423 25.3963 219.922 23.0529L218.496 17H212.312V32.7308ZM241.412 32.7308H245.534V27.1049H252.157V23.2606L245.534 23.1873V20.8439H252.157V17H241.412V32.7308ZM253.718 32.7308H257.84V17H253.718V32.7308ZM263.39 32.7308H267.597V20.9172H272V17H259.048V20.8439L263.463 20.9172L263.39 32.7308Z" fill="#00D3D4"/>
<path fill-rule="evenodd" clip-rule="evenodd" d="M151.737 52.1468C151.492 53.2818 151.017 54.1481 150.322 54.7341C149.627 55.3198 148.773 55.6005 147.76 55.6005C146.931 55.6005 146.163 55.3931 145.456 54.9659C144.736 54.5388 144.212 53.8919 143.882 53.0255C143.541 52.1589 143.37 51.1582 143.37 49.9988C143.37 49.0957 143.516 48.2293 143.797 47.3751C144.089 46.5329 144.577 45.8618 145.285 45.3614C145.98 44.8611 146.846 44.6169 147.895 44.6169C148.809 44.6169 149.553 44.8366 150.163 45.2882C150.761 45.7519 151.224 46.4596 151.529 47.4604L153.31 47.0333C152.944 45.7886 152.298 44.8122 151.371 44.1165C150.444 43.4208 149.297 43.0793 147.931 43.0793C146.736 43.0793 145.638 43.3476 144.638 43.8847C143.638 44.4339 142.87 45.2515 142.333 46.2889C141.784 47.3506 141.516 48.5832 141.516 50.0111C141.516 51.3047 141.76 52.5251 142.235 53.6601C142.711 54.7827 143.419 55.6493 144.334 56.2473C145.26 56.8454 146.444 57.1381 147.907 57.1381C149.321 57.1381 150.529 56.7598 151.505 55.9788C152.48 55.2099 153.163 54.0749 153.541 52.5984L151.737 52.1468ZM159.31 50.3162C159.31 48.2659 159.774 46.8014 160.689 45.9227C161.615 45.0564 162.701 44.6169 163.969 44.6169C164.872 44.6169 165.677 44.8366 166.408 45.2882C167.116 45.7519 167.665 46.3864 168.043 47.2163C168.421 48.034 168.604 49.0104 168.604 50.1209C168.604 51.8783 168.165 53.2206 167.299 54.1726C166.408 55.1245 165.299 55.6005 163.945 55.6005C162.615 55.6005 161.518 55.1245 160.64 54.1849C159.749 53.2451 159.31 51.9515 159.31 50.3162ZM157.456 50.2795C157.456 51.4877 157.713 52.6105 158.237 53.6845C158.749 54.7462 159.517 55.6005 160.53 56.2106C161.53 56.8331 162.677 57.1381 163.957 57.1381C165.14 57.1381 166.238 56.8698 167.262 56.2961C168.274 55.747 169.067 54.9171 169.628 53.831C170.177 52.7447 170.457 51.5121 170.457 50.1332C170.457 48.7662 170.201 47.5459 169.665 46.4719C169.141 45.398 168.372 44.5681 167.36 43.9701C166.347 43.3599 165.213 43.0669 163.969 43.0669C162.042 43.0669 160.481 43.7015 159.274 44.9708C158.054 46.2522 157.456 48.034 157.456 50.2795ZM177.458 51.3291L178.946 47.3383C179.263 46.472 179.507 45.6054 179.678 44.739C179.897 45.4712 180.214 46.4108 180.654 47.558L182.068 51.3291H177.458ZM173.531 56.9063H175.446L176.934 52.7935H182.629L184.215 56.9063H186.264L180.69 43.3111H178.751L173.531 56.9063ZM199.643 52.1468C199.399 53.2818 198.924 54.1481 198.228 54.7341C197.533 55.3198 196.679 55.6005 195.667 55.6005C194.838 55.6005 194.069 55.3931 193.362 54.9659C192.643 54.5388 192.118 53.8919 191.789 53.0255C191.447 52.1589 191.276 51.1582 191.276 49.9988C191.276 49.0957 191.423 48.2293 191.703 47.3751C191.996 46.5329 192.484 45.8618 193.191 45.3614C193.886 44.8611 194.753 44.6169 195.801 44.6169C196.716 44.6169 197.46 44.8366 198.07 45.2882C198.667 45.7519 199.131 46.4596 199.435 47.4604L201.216 47.0333C200.85 45.7886 200.204 44.8122 199.277 44.1165C198.35 43.4208 197.204 43.0793 195.838 43.0793C194.643 43.0793 193.545 43.3476 192.545 43.8847C191.545 44.4339 190.776 45.2515 190.24 46.2889C189.691 47.3506 189.422 48.5832 189.422 50.0111C189.422 51.3047 189.667 52.5251 190.142 53.6601C190.618 54.7827 191.325 55.6493 192.24 56.2473C193.167 56.8454 194.35 57.1381 195.813 57.1381C197.228 57.1381 198.436 56.7598 199.411 55.9788C200.387 55.2099 201.07 54.0749 201.448 52.5984L199.643 52.1468ZM205.961 56.9063H207.766V50.4992H214.827V56.9063H216.632V43.3111H214.827V48.8883H207.766V43.3111H205.961V56.9063ZM222.181 56.9063H223.974V43.3111H222.181V56.9063ZM229.377 56.9063H231.109V46.2157L238.244 56.9063H240.098V43.3111H238.366V53.9895L231.219 43.3111H229.377V56.9063ZM251.72 51.5732H255.721V54.1116C255.343 54.4533 254.782 54.7706 254.038 55.0636C253.294 55.3686 252.538 55.5151 251.757 55.5151C250.855 55.5151 250.013 55.3198 249.208 54.9292C248.415 54.5265 247.805 53.9286 247.391 53.1109C246.976 52.2931 246.769 51.2802 246.769 50.0598C246.769 49.0836 246.939 48.1682 247.281 47.3262C247.488 46.838 247.769 46.3864 248.147 45.9837C248.501 45.5688 248.989 45.2394 249.586 44.9831C250.196 44.739 250.903 44.6169 251.72 44.6169C252.416 44.6169 253.038 44.739 253.598 44.9708C254.16 45.2026 254.587 45.52 254.892 45.9227C255.209 46.3255 255.452 46.8624 255.66 47.558L257.282 47.1065C257.05 46.1913 256.709 45.4468 256.257 44.8854C255.794 44.3118 255.172 43.8724 254.392 43.5429C253.587 43.2257 252.696 43.0793 251.72 43.0793C250.367 43.0793 249.159 43.3476 248.122 43.9091C247.086 44.4704 246.293 45.3247 245.744 46.4596C245.183 47.6069 244.903 48.8516 244.903 50.1697C244.903 51.5121 245.183 52.7203 245.744 53.8066C246.293 54.8927 247.123 55.7104 248.22 56.2839C249.306 56.8575 250.525 57.1381 251.855 57.1381C252.842 57.1381 253.818 56.9551 254.745 56.6013C255.684 56.2594 256.599 55.7225 257.489 55.0147V49.9744H251.72V51.5732Z" fill="white" fill-opacity="0.949"/>
<path fill-rule="evenodd" clip-rule="evenodd" d="M143.697 27.5076H151.527V24.4321H143.697V27.5076Z" fill="#00D3D4"/>
<path fill-rule="evenodd" clip-rule="evenodd" d="M231.863 27.4588H239.693V24.4321H231.863V27.4588Z" fill="#00D3D4"/>
</svg>
