<svg width="145" height="125" viewBox="0 0 145 125" fill="none" xmlns="http://www.w3.org/2000/svg">
<path fill-rule="evenodd" clip-rule="evenodd" d="M104.602 -9.17284e-05L68.7612 12.6263L77.479 17.3794L59.2873 46.8627L41.1304 17.389L49.8679 12.6228L14 0.0445919L59.2969 73.5225L104.602 -9.17284e-05Z" fill="#F3F4F5"/>
<path fill-rule="evenodd" clip-rule="evenodd" d="M130.829 3.10947e-05L94.9882 12.7084L103.706 17.4929L85.5144 47.1671L67.3576 17.5025L76.0951 12.7049L40.2269 0.0450049L85.524 74L130.829 3.10947e-05Z" fill="#00D3D4"/>
<path fill-rule="evenodd" clip-rule="evenodd" d="M0.0732614 99.7307H5.19571L6.82996 96.6675C7.40288 95.6057 7.53717 95.2397 7.68369 94.8858C7.82974 95.2397 7.96406 95.5324 8.32988 96.1673L10.0984 99.7307H15.2209L10.5986 92.0424L15.4407 83.9999H10.391L8.68348 87.3438C8.0373 88.5519 7.90299 88.9058 7.68369 89.5528C7.53717 89.1985 7.47613 89.1252 6.976 88.1248L4.84211 83.9999H0L4.76885 91.9691L0.0732614 99.7307ZM30.6611 96.1673V87.8438H32.5151C34.8688 87.8438 36.0029 88.9058 36.0029 91.8225C36.0029 94.9592 34.3686 96.2406 32.5883 96.1673H30.6611ZM26.5389 99.7307H32.5151C34.9298 99.804 36.9299 98.9495 38.0644 97.5951C39.0642 96.521 40.1255 93.9582 40.1255 91.3343C40.1255 89.1985 39.4911 87.49 38.7717 86.4162C37.8569 85.0615 36.1494 83.9999 33.2956 83.9999H26.5389V99.7307ZM46.1018 90.9071V87.6977H47.6749C48.8823 87.6977 49.1627 87.8438 49.3824 87.9782C49.8093 88.1981 50.0164 88.6253 50.0164 89.1252C50.0164 89.9067 49.6628 90.4071 49.0899 90.6877C48.9556 90.761 48.7358 90.9071 47.3091 90.9071H46.1018ZM41.9795 99.7307H46.1018V93.751L49.8093 99.7307H54.9313L50.2972 92.9696C51.0167 92.8967 51.9437 92.6157 52.6509 92.0424C53.5779 91.261 54.3584 89.7601 54.3584 88.1981C54.3584 86.4162 53.4314 85.1348 52.224 84.4999C51.6511 84.2072 51.0167 83.9999 49.3092 83.9999H41.9795V99.7307ZM56.7731 99.7307H67.5182V96.1673L60.9075 96.2406V93.8238H67.5182V89.98H60.9075V87.8438H67.5182V83.9999H56.7731V99.7307ZM74.8478 92.6768L76.4092 86.9167L77.9824 92.6768H74.8478ZM68.7988 99.7307H72.8599L73.787 96.4599H79.0433L79.9703 99.7307H84.0314L79.6899 83.9999H73.1403L68.7988 99.7307ZM85.312 99.7307H89.2272L89.2882 94.8125C89.2882 92.6768 89.1539 90.4071 88.8613 88.1981C89.2882 89.6868 89.654 91.1881 90.0809 92.6768L91.996 99.7307H95.557L97.472 92.8967C97.6181 92.2497 98.045 90.5411 98.6184 88.4053C98.3986 90.6877 98.3258 93.1039 98.3258 94.6048V99.7307H102.24V83.9999H96.0571L94.7765 89.7601C94.3496 91.542 93.9838 93.8239 93.7762 96.0329C93.703 94.1782 93.4226 92.3963 92.9225 90.0528L91.4958 83.9999H85.312V99.7307ZM114.412 99.7307H118.534V94.1049H125.157V90.2605L118.534 90.1872V87.8438H125.157V83.9999H114.412V99.7307ZM126.718 99.7307H130.84V83.9999H126.718V99.7307ZM136.39 99.7307H140.597V87.9171H145V83.9999H132.048V87.8438L136.463 87.9171L136.39 99.7307Z" fill="#00D3D4"/>
<path fill-rule="evenodd" clip-rule="evenodd" d="M24.7365 119.147C24.4924 120.282 24.0171 121.148 23.3216 121.734C22.6266 122.32 21.7729 122.601 20.7604 122.601C19.9311 122.601 19.1628 122.393 18.4556 121.966C17.7361 121.539 17.2116 120.892 16.8824 120.026C16.5405 119.159 16.37 118.158 16.37 116.999C16.37 116.096 16.5161 115.229 16.7969 114.375C17.0895 113.533 17.5774 112.862 18.2846 112.361C18.9796 111.861 19.8461 111.617 20.8947 111.617C21.8095 111.617 22.5533 111.837 23.1634 112.288C23.7607 112.752 24.2242 113.46 24.529 114.46L26.3097 114.033C25.9439 112.789 25.2977 111.812 24.3707 111.117C23.4437 110.421 22.2969 110.079 20.9313 110.079C19.7362 110.079 18.6382 110.348 17.6384 110.885C16.6382 111.434 15.8699 112.252 15.3331 113.289C14.7842 114.351 14.516 115.583 14.516 117.011C14.516 118.305 14.7597 119.525 15.2355 120.66C15.7112 121.783 16.4189 122.649 17.3337 123.247C18.2602 123.845 19.4436 124.138 20.9069 124.138C22.3213 124.138 23.5292 123.76 24.5046 122.979C25.4804 122.21 26.1632 121.075 26.5412 119.598L24.7365 119.147ZM32.3104 117.316C32.3104 115.266 32.7739 113.802 33.6887 112.923C34.6152 112.056 35.7009 111.617 36.9693 111.617C37.8719 111.617 38.6768 111.837 39.4085 112.288C40.1157 112.752 40.6647 113.386 41.0427 114.216C41.4207 115.034 41.6039 116.01 41.6039 117.121C41.6039 118.878 41.1648 120.221 40.2988 121.173C39.4085 122.125 38.2988 122.601 36.9449 122.601C35.6154 122.601 34.518 122.125 33.6398 121.185C32.7494 120.245 32.3104 118.952 32.3104 117.316ZM30.4563 117.28C30.4563 118.488 30.7128 119.611 31.2368 120.685C31.7492 121.746 32.5175 122.601 33.5299 123.211C34.5302 123.833 35.6765 124.138 36.9571 124.138C38.1401 124.138 39.2375 123.87 40.2622 123.296C41.2742 122.747 42.0674 121.917 42.6281 120.831C43.1771 119.745 43.4574 118.512 43.4574 117.133C43.4574 115.766 43.2015 114.546 42.6647 113.472C42.1406 112.398 41.3719 111.568 40.3599 110.97C39.3474 110.36 38.2133 110.067 36.9693 110.067C35.0421 110.067 33.4811 110.702 32.2737 111.971C31.0542 113.252 30.4563 115.034 30.4563 117.28ZM50.4583 118.329L51.946 114.338C52.263 113.472 52.5072 112.605 52.6777 111.739C52.8974 112.471 53.2144 113.411 53.6535 114.558L55.0684 118.329H50.4583ZM46.531 123.906H48.446L49.9338 119.794H55.6292L57.215 123.906H59.2639L53.6901 110.311H51.7507L46.531 123.906ZM72.643 119.147C72.3993 120.282 71.9236 121.148 71.2281 121.734C70.5331 122.32 69.6793 122.601 68.6668 122.601C67.8375 122.601 67.0692 122.393 66.362 121.966C65.6426 121.539 65.118 120.892 64.7888 120.026C64.4469 119.159 64.2765 118.158 64.2765 116.999C64.2765 116.096 64.4225 115.229 64.7034 114.375C64.9959 113.533 65.4839 112.862 66.1911 112.361C66.8861 111.861 67.7525 111.617 68.8012 111.617C69.716 111.617 70.4598 111.837 71.0698 112.288C71.6671 112.752 72.1307 113.46 72.4354 114.46L74.2162 114.033C73.8503 112.789 73.2042 111.812 72.2772 111.117C71.3502 110.421 70.2039 110.079 68.8378 110.079C67.6426 110.079 66.5452 110.348 65.5449 110.885C64.5446 111.434 63.7764 112.252 63.2396 113.289C62.6911 114.351 62.4225 115.583 62.4225 117.011C62.4225 118.305 62.6667 119.525 63.1419 120.66C63.6176 121.783 64.3253 122.649 65.2401 123.247C66.1667 123.845 67.3501 124.138 68.8134 124.138C70.2283 124.138 71.4356 123.76 72.411 122.979C73.3868 122.21 74.0697 121.075 74.4477 119.598L72.643 119.147ZM78.9606 123.906H80.7658V117.499H87.8273V123.906H89.632V110.311H87.8273V115.888H80.7658V110.311H78.9606V123.906ZM95.1813 123.906H96.9743V110.311H95.1813V123.906ZM102.377 123.906H104.109V113.216L111.244 123.906H113.098V110.311H111.366V120.99L104.219 110.311H102.377V123.906ZM124.72 118.573H128.721V121.112C128.343 121.453 127.782 121.771 127.038 122.064C126.294 122.369 125.538 122.515 124.757 122.515C123.855 122.515 123.013 122.32 122.208 121.929C121.415 121.527 120.805 120.929 120.391 120.111C119.976 119.293 119.769 118.28 119.769 117.06C119.769 116.084 119.939 115.168 120.281 114.326C120.488 113.838 120.769 113.386 121.147 112.984C121.501 112.569 121.989 112.239 122.586 111.983C123.196 111.739 123.903 111.617 124.72 111.617C125.416 111.617 126.038 111.739 126.598 111.971C127.16 112.203 127.587 112.52 127.892 112.923C128.209 113.326 128.452 113.862 128.66 114.558L130.282 114.107C130.05 113.191 129.709 112.447 129.257 111.886C128.794 111.312 128.172 110.872 127.392 110.543C126.587 110.226 125.696 110.079 124.72 110.079C123.367 110.079 122.159 110.348 121.122 110.909C120.086 111.47 119.293 112.325 118.744 113.46C118.183 114.607 117.903 115.852 117.903 117.17C117.903 118.512 118.183 119.72 118.744 120.807C119.293 121.893 120.123 122.711 121.22 123.284C122.306 123.858 123.525 124.138 124.855 124.138C125.842 124.138 126.818 123.955 127.745 123.601C128.684 123.26 129.599 122.723 130.489 122.015V116.974H124.72V118.573Z" fill="#CCCCCC"/>
<path fill-rule="evenodd" clip-rule="evenodd" d="M16.6969 94.5076H24.5266V91.4321H16.6969V94.5076Z" fill="#F3F4F5"/>
<path fill-rule="evenodd" clip-rule="evenodd" d="M104.863 94.4587H112.693V91.4321H104.863V94.4587Z" fill="#F3F4F5"/>
</svg>
